<?xml version="1.0" encoding="utf-8"?><svg xml:space="preserve" viewBox="0 0 100 100" y="0" x="0" xmlns="http://www.w3.org/2000/svg" id="圖層_1" version="1.1" width="128px" height="128px" xmlns:xlink="http://www.w3.org/1999/xlink" style="width:100%;height:100%;background-size:initial;background-repeat-y:initial;background-repeat-x:initial;background-position-y:initial;background-position-x:initial;background-origin:initial;background-color:initial;background-clip:initial;background-attachment:initial;animation-play-state:paused" ><g class="ldl-scale" style="transform-origin:50% 50%;transform:rotate(0deg) scale(0.8, 0.8);animation-play-state:paused" ><ellipse stroke-miterlimit="10" stroke-width="3.5" stroke="#333" fill="none" ry="12.115" rx="26.167" cy="50.53" cx="43.462" style="stroke:rgb(255, 255, 255);animation-play-state:paused" ></ellipse>
<path stroke-miterlimit="10" stroke-width="3.5" stroke="#333" fill="none" d="M69.629 50.53c0 27.552-11.715 37.885-26.167 37.885s-26.167-9-26.167-37.885" style="stroke:rgb(255, 255, 255);animation-play-state:paused" ></path>
<path stroke-miterlimit="10" stroke-width="3.5" stroke="#333" fill="none" d="M69.052 60.439c.294-2.599.727-5.19 2.516-6.959 1.789-1.769 4.622-2.494 6.958-1.562 2.536 1.012 4.102 3.783 4.176 6.512s-1.147 5.37-2.867 7.49c-.779.96-1.675 1.844-2.743 2.468-2.037 1.19-4.497 1.337-6.753 2.024-2.256.687-4.435 2.214-5.404 4.67" style="stroke:rgb(255, 255, 255);animation-play-state:paused" ></path>
<g style="animation-play-state:paused" ><path fill="#333" d="M30.306 19.586c-.938 1.474-1.137 3.02-.859 4.438.131.711.362 1.394.657 2.039.297.642.662 1.232 1.094 1.854.859 1.222 1.893 2.416 2.946 3.739a32.05 32.05 0 0 1 1.555 2.117c.256.375.478.785.707 1.19.235.401.451.813.639 1.239 1.579 3.37 2.07 7.24 1.368 10.823-.685 3.577-2.511 6.886-5.199 9.065 1.136-3.257 1.722-6.365 1.677-9.405a20.866 20.866 0 0 0-1.929-8.594c-1.109-2.616-3.348-5.09-4.862-8.492-.743-1.682-1.173-3.724-.849-5.612.303-1.895 1.437-3.705 3.055-4.401z" style="fill:rgb(255, 255, 255);animation-play-state:paused" ></path></g>
<g style="animation-play-state:paused" ><path fill="#333" d="M38.708 13.333c-.938 1.474-1.137 3.02-.859 4.438.131.711.362 1.394.657 2.039.297.642.662 1.232 1.094 1.854.859 1.222 1.893 2.416 2.946 3.739a32.05 32.05 0 0 1 1.555 2.117c.256.375.478.785.707 1.19.235.401.451.813.639 1.239 1.579 3.37 2.07 7.24 1.368 10.823-.685 3.577-2.511 6.886-5.199 9.065 1.136-3.257 1.723-6.365 1.677-9.405a20.866 20.866 0 0 0-1.929-8.594c-1.109-2.616-3.348-5.09-4.862-8.492-.743-1.682-1.173-3.724-.849-5.612.302-1.896 1.437-3.706 3.055-4.401z" style="fill:rgb(255, 255, 255);animation-play-state:paused" ></path></g>
<g style="animation-play-state:paused" ><path fill="#333" d="M47.11 7.585c-.938 1.474-1.137 3.02-.859 4.438.131.711.362 1.394.657 2.039.297.642.662 1.232 1.094 1.854.859 1.222 1.893 2.416 2.946 3.739a32.05 32.05 0 0 1 1.555 2.117c.256.375.478.785.707 1.19.235.401.451.813.639 1.239 1.579 3.37 2.07 7.24 1.368 10.823-.685 3.577-2.511 6.886-5.199 9.065 1.136-3.257 1.722-6.365 1.677-9.405a20.866 20.866 0 0 0-1.929-8.594c-1.109-2.616-3.348-5.09-4.862-8.492-.743-1.682-1.173-3.724-.849-5.612.302-1.896 1.436-3.706 3.055-4.401z" style="fill:rgb(255, 255, 255);animation-play-state:paused" ></path></g>
<metadata xmlns:d="https://loading.io/stock/" style="animation-play-state:paused" ><d:name style="animation-play-state:paused" >coffee</d:name>


<d:tags style="animation-play-state:paused" >coffee,cafe,tea,cup,drink,cafeteria,latte,cappuccino,espresso,macchiato,hot</d:tags>


<d:license style="animation-play-state:paused" >by</d:license>


<d:slug style="animation-play-state:paused" >2u08q4</d:slug></metadata></g><!-- generated by https://loading.io/ --></svg>